<svg id="Hexels SVG Export" xmlns="http://www.w3.org/2000/svg" version="1.1" xmlns:xlink="http://www.w3.org/1999/xlink" viewBox="0 -0 831 480" xml:space="preserve">
<g id="Root" transform="matrix(1.000, 0.000, 0.000, 1.000, 0.000, 0.000)">
<g id="Layer 16" transform="matrix(1.000, 0.000, 0.000, 1.000, 0.000, 0.000)">
<path d="M 69.53,-0.43 L -0.38,-0.33 L -0.43,80.25 L 35.07,60.25 L 35.08,20.25 L 69.53,-0.43  z
" style="fill:#3fbfff;fill-opacity:1.00"/>
<path d="M 138.81,-0.43 L 69.03,-0.43 L 68.85,40.25 L 104.17,60.43 L 104.36,20.25 L 138.81,-0.43  z
" style="fill:#49b8ff;fill-opacity:1.00"/>
<path d="M 138.31,-0.43 L 173.20,20.50 L 208.10,-0.43 L 138.31,-0.43  z
" style="fill:#55b1ff;fill-opacity:1.00"/>
<path d="M 207.35,-0.00 L 242.49,20.50 L 242.74,-0.43 L 207.35,-0.00  z
" style="fill:#63abff;fill-opacity:1.00"/>
<path d="M 242.24,-0.43 L 242.11,20.33 L 277.38,40.43 L 277.51,-0.33 L 242.24,-0.43  z
" style="fill:#68a6ff;fill-opacity:1.00"/>
<path d="M 276.63,0.00 L 311.77,20.50 L 312.02,-0.43 L 276.63,0.00  z
" style="fill:#70a6ff;fill-opacity:1.00"/>
<path d="M 311.52,-0.43 L 311.39,20.33 L 346.66,40.43 L 346.79,-0.33 L 311.52,-0.43  z
" style="fill:#75a0ff;fill-opacity:1.00"/>
<path d="M 345.91,-0.00 L 381.05,20.50 L 381.30,-0.43 L 345.91,-0.00  z
" style="fill:#7da1fe;fill-opacity:1.00"/>
<path d="M 380.80,-0.43 L 380.67,20.33 L 415.94,40.43 L 416.07,-0.33 L 380.80,-0.43  z
" style="fill:#829dff;fill-opacity:1.00"/>
<path d="M 415.19,-0.00 L 450.33,20.50 L 450.58,-0.43 L 415.19,-0.00  z
" style="fill:#8b9cff;fill-opacity:1.00"/>
<path d="M 450.08,-0.43 L 449.95,20.33 L 485.22,40.43 L 485.35,-0.33 L 450.08,-0.43  z
" style="fill:#8e9aff;fill-opacity:1.00"/>
<path d="M 484.47,-0.00 L 519.61,20.50 L 519.86,-0.43 L 484.47,-0.00  z
" style="fill:#969aff;fill-opacity:1.00"/>
<path d="M 519.36,-0.43 L 519.23,20.33 L 554.26,40.50 L 589.39,20.00 L 554.39,-0.48 L 519.36,-0.43  z
" style="fill:#9898ff;fill-opacity:1.00"/>
<path d="M 553.75,-0.00 L 588.89,20.50 L 589.15,-0.43 L 553.75,-0.00  z
" style="fill:#9d99ff;fill-opacity:1.00"/>
<path d="M 588.64,-0.43 L 588.52,20.33 L 623.79,40.43 L 623.91,-0.33 L 588.64,-0.43  z
" style="fill:#9b93ff;fill-opacity:1.00"/>
<path d="M 623.04,-0.00 L 658.18,20.50 L 658.43,-0.43 L 623.04,-0.00  z
" style="fill:#9f90ff;fill-opacity:1.00"/>
<path d="M 657.93,-0.43 L 657.80,20.33 L 693.07,40.43 L 693.20,-0.33 L 657.93,-0.43  z
" style="fill:#9e88ff;fill-opacity:1.00"/>
<path d="M 692.32,-0.00 L 727.46,20.50 L 727.71,-0.43 L 692.32,-0.00  z
" style="fill:#a284ff;fill-opacity:1.00"/>
<path d="M 727.02,-0.25 L 727.08,60.33 L 762.53,40.25 L 762.47,-0.33 L 727.02,-0.25  z
" style="fill:#a27bff;fill-opacity:1.00"/>
<path d="M 761.60,-0.00 L 796.74,20.50 L 796.99,-0.43 L 761.60,-0.00  z
" style="fill:#a777ff;fill-opacity:1.00"/>
<path d="M 796.31,-0.25 L 796.36,60.33 L 831.81,40.25 L 831.76,-0.33 L 796.31,-0.25  z
" style="fill:#a76dff;fill-opacity:1.00"/>
<path d="M 69.53,-0.43 L 34.21,19.75 L 34.39,60.43 L 69.71,40.25 L 69.53,-0.43  z
" style="fill:#43baff;fill-opacity:1.00"/>
<path d="M 138.81,-0.43 L 103.42,20.00 L 138.81,40.43 L 138.81,-0.43  z
" style="fill:#4eb3ff;fill-opacity:1.00"/>
<path d="M 138.31,-0.43 L 138.13,40.25 L 173.45,60.43 L 173.64,19.75 L 138.31,-0.43  z
" style="fill:#52b1ff;fill-opacity:1.00"/>
<path d="M 208.10,-0.43 L 172.70,20.00 L 208.10,40.43 L 208.10,-0.43  z
" style="fill:#5aadff;fill-opacity:1.00"/>
<path d="M 207.60,-0.43 L 207.59,40.43 L 242.99,20.00 L 207.60,-0.43  z
" style="fill:#5fabff;fill-opacity:1.00"/>
<path d="M 276.88,-0.43 L 276.87,40.43 L 312.27,20.00 L 276.88,-0.43  z
" style="fill:#6ca5ff;fill-opacity:1.00"/>
<path d="M 346.16,-0.43 L 345.98,40.25 L 381.30,60.43 L 381.48,19.75 L 346.16,-0.43  z
" style="fill:#7a9fff;fill-opacity:1.00"/>
<path d="M 415.44,-0.43 L 415.26,40.25 L 450.58,60.43 L 450.76,19.75 L 415.44,-0.43  z
" style="fill:#869cff;fill-opacity:1.00"/>
<path d="M 484.72,-0.43 L 484.72,40.43 L 520.11,20.00 L 484.72,-0.43  z
" style="fill:#929aff;fill-opacity:1.00"/>
<path d="M 623.29,-0.43 L 623.28,40.43 L 658.68,20.00 L 623.29,-0.43  z
" style="fill:#9c90ff;fill-opacity:1.00"/>
<path d="M 692.57,-0.43 L 692.56,40.43 L 727.96,20.00 L 692.57,-0.43  z
" style="fill:#9f84ff;fill-opacity:1.00"/>
<path d="M 761.85,-0.43 L 761.85,40.43 L 797.24,20.00 L 761.85,-0.43  z
" style="fill:#a477ff;fill-opacity:1.00"/>
<path d="M 103.67,19.57 L 103.67,60.43 L 139.06,40.00 L 103.67,19.57  z
" style="fill:#4bb3ff;fill-opacity:1.00"/>
<path d="M 172.95,19.57 L 172.77,60.25 L 208.10,80.43 L 208.28,39.75 L 172.95,19.57  z
" style="fill:#57adff;fill-opacity:1.00"/>
<path d="M 242.74,19.57 L 207.35,40.00 L 242.74,60.43 L 242.74,19.57  z
" style="fill:#5fa7ff;fill-opacity:1.00"/>
<path d="M 242.24,19.57 L 242.05,60.25 L 277.38,80.43 L 277.56,39.75 L 242.24,19.57  z
" style="fill:#64a5ff;fill-opacity:1.00"/>
<path d="M 312.02,19.57 L 276.63,40.00 L 312.02,60.43 L 312.02,19.57  z
" style="fill:#6ca1fe;fill-opacity:1.00"/>
<path d="M 311.52,19.57 L 311.33,60.25 L 346.66,80.43 L 346.84,39.75 L 311.52,19.57  z
" style="fill:#719ffe;fill-opacity:1.00"/>
<path d="M 380.80,19.57 L 380.80,60.43 L 416.19,40.00 L 380.80,19.57  z
" style="fill:#7e9dfe;fill-opacity:1.00"/>
<path d="M 450.08,19.57 L 450.08,60.43 L 485.47,40.00 L 450.08,19.57  z
" style="fill:#8b99ff;fill-opacity:1.00"/>
<path d="M 519.86,19.57 L 484.47,40.00 L 519.86,60.43 L 519.86,19.57  z
" style="fill:#9297ff;fill-opacity:1.00"/>
<path d="M 519.36,19.57 L 519.36,60.43 L 554.75,40.00 L 519.36,19.57  z
" style="fill:#9597ff;fill-opacity:1.00"/>
<path d="M 588.89,19.50 L 553.75,40.00 L 588.89,60.50 L 624.04,40.00 L 588.89,19.50  z
" style="fill:#9894ff;fill-opacity:1.00"/>
<path d="M 658.43,19.57 L 623.04,40.00 L 658.43,60.43 L 658.43,19.57  z
" style="fill:#9a8bff;fill-opacity:1.00"/>
<path d="M 657.93,19.57 L 657.92,60.43 L 693.32,40.00 L 657.93,19.57  z
" style="fill:#9b88ff;fill-opacity:1.00"/>
<path d="M 727.71,19.57 L 692.32,40.00 L 727.71,60.43 L 727.71,19.57  z
" style="fill:#9e80ff;fill-opacity:1.00"/>
<path d="M 796.99,19.57 L 761.60,40.00 L 796.99,60.43 L 796.99,19.57  z
" style="fill:#a372ff;fill-opacity:1.00"/>
<path d="M 69.53,39.57 L 34.21,59.75 L 34.39,100.43 L 69.71,80.25 L 69.53,39.57  z
" style="fill:#45b8ff;fill-opacity:1.00"/>
<path d="M 69.03,39.57 L 69.03,80.43 L 104.42,60.00 L 69.03,39.57  z
" style="fill:#47b6ff;fill-opacity:1.00"/>
<path d="M 138.81,39.57 L 103.49,59.75 L 103.67,100.43 L 139.00,80.25 L 138.81,39.57  z
" style="fill:#4db1ff;fill-opacity:1.00"/>
<path d="M 138.31,39.57 L 138.31,80.43 L 173.70,60.00 L 138.31,39.57  z
" style="fill:#50afff;fill-opacity:1.00"/>
<path d="M 207.60,39.57 L 207.59,80.43 L 242.99,60.00 L 207.60,39.57  z
" style="fill:#5ca8fe;fill-opacity:1.00"/>
<path d="M 276.88,39.57 L 276.87,80.43 L 312.27,60.00 L 276.88,39.57  z
" style="fill:#68a1fe;fill-opacity:1.00"/>
<path d="M 346.16,39.57 L 346.16,80.43 L 381.55,60.00 L 346.16,39.57  z
" style="fill:#769dfe;fill-opacity:1.00"/>
<path d="M 415.94,39.57 L 380.55,60.00 L 415.94,80.43 L 415.94,39.57  z
" style="fill:#7e9afe;fill-opacity:1.00"/>
<path d="M 415.44,39.57 L 415.26,80.25 L 450.58,100.43 L 450.76,59.75 L 415.44,39.57  z
" style="fill:#8298fe;fill-opacity:1.00"/>
<path d="M 485.22,39.57 L 449.83,60.00 L 485.22,80.43 L 485.22,39.57  z
" style="fill:#8a96ff;fill-opacity:1.00"/>
<path d="M 484.72,39.57 L 484.72,80.43 L 520.11,60.00 L 484.72,39.57  z
" style="fill:#8e96ff;fill-opacity:1.00"/>
<path d="M 554.25,39.50 L 519.11,60.00 L 554.25,80.50 L 589.39,60.00 L 554.25,39.50  z
" style="fill:#9494ff;fill-opacity:1.00"/>
<path d="M 623.79,39.57 L 588.46,59.75 L 588.64,100.43 L 623.97,80.25 L 623.79,39.57  z
" style="fill:#968eff;fill-opacity:1.00"/>
<path d="M 623.29,39.57 L 623.28,80.43 L 658.68,60.00 L 623.29,39.57  z
" style="fill:#978bff;fill-opacity:1.00"/>
<path d="M 693.07,39.57 L 657.68,60.00 L 693.07,80.43 L 693.07,39.57  z
" style="fill:#9983ff;fill-opacity:1.00"/>
<path d="M 692.57,39.57 L 692.56,80.43 L 727.96,60.00 L 692.57,39.57  z
" style="fill:#9a80ff;fill-opacity:1.00"/>
<path d="M 762.35,39.57 L 726.96,60.00 L 762.35,80.43 L 762.35,39.57  z
" style="fill:#9e76ff;fill-opacity:1.00"/>
<path d="M 761.85,39.57 L 761.85,80.43 L 797.24,60.00 L 761.85,39.57  z
" style="fill:#a072ff;fill-opacity:1.00"/>
<path d="M 831.63,39.57 L 796.31,59.75 L 796.49,100.43 L 831.81,80.25 L 831.63,39.57  z
" style="fill:#a368ff;fill-opacity:1.00"/>
<path d="M 35.07,59.75 L -0.47,79.83 L -0.43,160.25 L 35.11,140.17 L 35.07,59.75  z
" style="fill:#43baff;fill-opacity:1.00"/>
<path d="M 104.17,59.57 L 68.85,79.75 L 69.03,120.43 L 104.36,100.25 L 104.17,59.57  z
" style="fill:#49b3ff;fill-opacity:1.00"/>
<path d="M 173.45,59.57 L 138.13,79.75 L 138.31,120.43 L 173.64,100.25 L 173.45,59.57  z
" style="fill:#52adff;fill-opacity:1.00"/>
<path d="M 172.95,59.57 L 172.95,100.43 L 208.35,80.00 L 172.95,59.57  z
" style="fill:#55aaff;fill-opacity:1.00"/>
<path d="M 242.74,59.57 L 207.41,79.75 L 207.60,120.43 L 242.92,100.25 L 242.74,59.57  z
" style="fill:#5da5fe;fill-opacity:1.00"/>
<path d="M 242.24,59.57 L 242.05,100.25 L 277.38,120.43 L 277.56,79.75 L 242.24,59.57  z
" style="fill:#61a3fe;fill-opacity:1.00"/>
<path d="M 312.02,59.57 L 276.63,80.00 L 312.02,100.43 L 312.02,59.57  z
" style="fill:#6a9ffe;fill-opacity:1.00"/>
<path d="M 311.52,59.57 L 311.51,100.43 L 346.91,80.00 L 311.52,59.57  z
" style="fill:#6e9dfe;fill-opacity:1.00"/>
<path d="M 381.30,59.57 L 345.91,80.00 L 381.30,100.43 L 381.30,59.57  z
" style="fill:#7699ff;fill-opacity:1.00"/>
<path d="M 380.80,59.57 L 380.80,100.43 L 416.19,80.00 L 380.80,59.57  z
" style="fill:#7a98ff;fill-opacity:1.00"/>
<path d="M 450.08,59.57 L 450.08,100.43 L 485.47,80.00 L 450.08,59.57  z
" style="fill:#8694ff;fill-opacity:1.00"/>
<path d="M 519.86,59.57 L 484.47,80.00 L 519.86,100.43 L 519.86,59.57  z
" style="fill:#8d93ff;fill-opacity:1.00"/>
<path d="M 519.36,59.57 L 519.18,100.25 L 554.50,120.43 L 554.69,79.75 L 519.36,59.57  z
" style="fill:#9092ff;fill-opacity:1.00"/>
<path d="M 589.14,59.57 L 553.75,80.00 L 589.14,100.43 L 589.14,59.57  z
" style="fill:#9390ff;fill-opacity:1.00"/>
<path d="M 658.43,59.57 L 623.04,80.00 L 658.43,100.43 L 658.43,59.57  z
" style="fill:#9687ff;fill-opacity:1.00"/>
<path d="M 657.93,59.57 L 657.92,100.43 L 693.32,80.00 L 657.93,59.57  z
" style="fill:#9683ff;fill-opacity:1.00"/>
<path d="M 727.71,59.57 L 692.32,80.00 L 727.71,100.43 L 727.71,59.57  z
" style="fill:#997bff;fill-opacity:1.00"/>
<path d="M 727.21,59.57 L 727.21,100.43 L 762.60,80.00 L 727.21,59.57  z
" style="fill:#9b76ff;fill-opacity:1.00"/>
<path d="M 796.99,59.57 L 761.60,80.00 L 796.99,100.43 L 796.99,59.57  z
" style="fill:#9f6dff;fill-opacity:1.00"/>
<path d="M 69.53,79.57 L 34.21,99.75 L 34.39,140.43 L 69.71,120.25 L 69.53,79.57  z
" style="fill:#47b6ff;fill-opacity:1.00"/>
<path d="M 138.81,79.57 L 103.49,99.75 L 103.67,140.43 L 139.00,120.25 L 138.81,79.57  z
" style="fill:#4fafff;fill-opacity:1.00"/>
<path d="M 208.10,79.57 L 172.77,99.75 L 172.95,140.43 L 208.28,120.25 L 208.10,79.57  z
" style="fill:#57a7ff;fill-opacity:1.00"/>
<path d="M 276.88,79.57 L 276.87,120.43 L 312.27,100.00 L 276.88,79.57  z
" style="fill:#669eff;fill-opacity:1.00"/>
<path d="M 346.66,79.57 L 311.27,100.00 L 346.66,120.43 L 346.66,79.57  z
" style="fill:#6e9aff;fill-opacity:1.00"/>
<path d="M 346.16,79.57 L 346.16,120.43 L 381.55,100.00 L 346.16,79.57  z
" style="fill:#7298ff;fill-opacity:1.00"/>
<path d="M 415.94,79.57 L 380.55,100.00 L 415.94,120.43 L 415.94,79.57  z
" style="fill:#7b95ff;fill-opacity:1.00"/>
<path d="M 415.44,79.57 L 415.44,120.43 L 450.83,100.00 L 415.44,79.57  z
" style="fill:#7f94ff;fill-opacity:1.00"/>
<path d="M 485.22,79.57 L 449.83,100.00 L 485.22,120.43 L 485.22,79.57  z
" style="fill:#8691ff;fill-opacity:1.00"/>
<path d="M 484.72,79.57 L 484.54,120.25 L 519.86,140.43 L 520.05,99.75 L 484.72,79.57  z
" style="fill:#8990ff;fill-opacity:1.00"/>
<path d="M 554.00,79.57 L 554.00,120.43 L 589.39,100.00 L 554.00,79.57  z
" style="fill:#908fff;fill-opacity:1.00"/>
<path d="M 623.79,79.57 L 588.46,99.75 L 588.64,140.43 L 623.97,120.25 L 623.79,79.57  z
" style="fill:#928aff;fill-opacity:1.00"/>
<path d="M 623.29,79.57 L 623.28,120.43 L 658.68,100.00 L 623.29,79.57  z
" style="fill:#9386ff;fill-opacity:1.00"/>
<path d="M 693.07,79.57 L 657.68,100.00 L 693.07,120.43 L 693.07,79.57  z
" style="fill:#967fff;fill-opacity:1.00"/>
<path d="M 692.57,79.57 L 692.56,120.43 L 727.96,100.00 L 692.57,79.57  z
" style="fill:#967bff;fill-opacity:1.00"/>
<path d="M 762.35,79.57 L 727.02,99.75 L 727.21,140.43 L 762.53,120.25 L 762.35,79.57  z
" style="fill:#9a72ff;fill-opacity:1.00"/>
<path d="M 761.85,79.57 L 761.85,120.43 L 797.24,100.00 L 761.85,79.57  z
" style="fill:#9c6dff;fill-opacity:1.00"/>
<path d="M 831.63,79.57 L 796.31,99.75 L 796.49,140.43 L 831.81,120.25 L 831.63,79.57  z
" style="fill:#a065ff;fill-opacity:1.00"/>
<path d="M 104.17,99.57 L 68.85,119.75 L 69.03,160.43 L 104.36,140.25 L 104.17,99.57  z
" style="fill:#4cb1ff;fill-opacity:1.00"/>
<path d="M 173.45,99.57 L 138.13,119.75 L 138.31,160.43 L 173.64,140.25 L 173.45,99.57  z
" style="fill:#53a9ff;fill-opacity:1.00"/>
<path d="M 242.74,99.57 L 207.41,119.75 L 207.60,160.43 L 242.92,140.25 L 242.74,99.57  z
" style="fill:#5da2ff;fill-opacity:1.00"/>
<path d="M 242.24,99.57 L 242.23,140.43 L 277.63,120.00 L 242.24,99.57  z
" style="fill:#5fa0ff;fill-opacity:1.00"/>
<path d="M 312.02,99.57 L 276.63,120.00 L 312.02,140.43 L 312.02,99.57  z
" style="fill:#679bff;fill-opacity:1.00"/>
<path d="M 311.52,99.57 L 311.51,140.43 L 346.91,120.00 L 311.52,99.57  z
" style="fill:#6b99ff;fill-opacity:1.00"/>
<path d="M 381.30,99.57 L 345.91,120.00 L 381.30,140.43 L 381.30,99.57  z
" style="fill:#7395ff;fill-opacity:1.00"/>
<path d="M 380.80,99.57 L 380.80,140.43 L 416.19,120.00 L 380.80,99.57  z
" style="fill:#7794ff;fill-opacity:1.00"/>
<path d="M 450.58,99.57 L 415.19,120.00 L 450.58,140.43 L 450.58,99.57  z
" style="fill:#7f90ff;fill-opacity:1.00"/>
<path d="M 450.08,99.57 L 449.90,140.25 L 485.22,160.43 L 485.40,119.75 L 450.08,99.57  z
" style="fill:#828fff;fill-opacity:1.00"/>
<path d="M 519.36,99.57 L 519.18,140.25 L 554.50,160.43 L 554.69,119.75 L 519.36,99.57  z
" style="fill:#8c8eff;fill-opacity:1.00"/>
<path d="M 589.14,99.57 L 553.82,119.75 L 554.00,160.43 L 589.33,140.25 L 589.14,99.57  z
" style="fill:#8f8cff;fill-opacity:1.00"/>
<path d="M 658.43,99.57 L 623.04,120.00 L 658.43,140.43 L 658.43,99.57  z
" style="fill:#9282ff;fill-opacity:1.00"/>
<path d="M 657.93,99.57 L 657.92,140.43 L 693.32,120.00 L 657.93,99.57  z
" style="fill:#937eff;fill-opacity:1.00"/>
<path d="M 727.71,99.57 L 692.32,120.00 L 727.71,140.43 L 727.71,99.57  z
" style="fill:#9676ff;fill-opacity:1.00"/>
<path d="M 796.99,99.57 L 761.60,120.00 L 796.99,140.43 L 796.99,99.57  z
" style="fill:#9b6aff;fill-opacity:1.00"/>
<path d="M 69.71,119.75 L 34.21,139.75 L 34.21,179.75 L -0.50,200.01 L 34.64,220.50 L 69.75,200.16 L 69.71,119.75  z
" style="fill:#49b4ff;fill-opacity:1.00"/>
<path d="M 138.81,119.57 L 103.49,139.75 L 103.67,180.43 L 139.00,160.25 L 138.81,119.57  z
" style="fill:#51acff;fill-opacity:1.00"/>
<path d="M 208.10,119.57 L 172.77,139.75 L 172.95,180.43 L 208.28,160.25 L 208.10,119.57  z
" style="fill:#59a5ff;fill-opacity:1.00"/>
<path d="M 277.38,119.57 L 242.05,139.75 L 242.24,180.43 L 277.56,160.25 L 277.38,119.57  z
" style="fill:#619dff;fill-opacity:1.00"/>
<path d="M 276.88,119.57 L 276.87,160.43 L 312.27,140.00 L 276.88,119.57  z
" style="fill:#649bff;fill-opacity:1.00"/>
<path d="M 346.66,119.57 L 311.27,140.00 L 346.66,160.43 L 346.66,119.57  z
" style="fill:#6c96ff;fill-opacity:1.00"/>
<path d="M 346.16,119.57 L 345.98,160.25 L 381.30,180.43 L 381.48,139.75 L 346.16,119.57  z
" style="fill:#7094ff;fill-opacity:1.00"/>
<path d="M 415.94,119.57 L 380.55,140.00 L 415.94,160.43 L 415.94,119.57  z
" style="fill:#7791ff;fill-opacity:1.00"/>
<path d="M 415.44,119.57 L 415.26,160.25 L 450.58,180.43 L 450.76,139.75 L 415.44,119.57  z
" style="fill:#7c8fff;fill-opacity:1.00"/>
<path d="M 484.97,119.50 L 484.54,160.25 L 519.61,180.50 L 554.69,159.75 L 484.97,119.50  z
" style="fill:#868cff;fill-opacity:1.00"/>
<path d="M 623.79,119.57 L 588.46,139.75 L 588.64,180.43 L 623.97,160.25 L 623.79,119.57  z
" style="fill:#8e86ff;fill-opacity:1.00"/>
<path d="M 623.29,119.57 L 623.28,160.43 L 658.68,140.00 L 623.29,119.57  z
" style="fill:#8f82ff;fill-opacity:1.00"/>
<path d="M 693.07,119.57 L 657.68,140.00 L 693.07,160.43 L 693.07,119.57  z
" style="fill:#927bff;fill-opacity:1.00"/>
<path d="M 692.57,119.57 L 692.56,160.43 L 727.96,140.00 L 692.57,119.57  z
" style="fill:#9378ff;fill-opacity:1.00"/>
<path d="M 762.35,119.57 L 727.02,139.75 L 727.21,180.43 L 762.53,160.25 L 762.35,119.57  z
" style="fill:#966fff;fill-opacity:1.00"/>
<path d="M 761.85,119.57 L 761.85,160.43 L 797.24,140.00 L 761.85,119.57  z
" style="fill:#996cff;fill-opacity:1.00"/>
<path d="M 831.63,119.57 L 796.31,139.75 L 796.49,180.43 L 831.81,160.25 L 831.63,119.57  z
" style="fill:#9d64fe;fill-opacity:1.00"/>
<path d="M 34.89,139.57 L -0.43,159.75 L -0.25,200.43 L 35.07,180.25 L 34.89,139.57  z
" style="fill:#45b7ff;fill-opacity:1.00"/>
<path d="M 104.36,139.75 L 68.81,159.83 L 68.85,240.25 L 104.39,220.17 L 104.36,139.75  z
" style="fill:#4eafff;fill-opacity:1.00"/>
<path d="M 173.64,139.75 L 138.13,159.75 L 138.13,199.75 L 103.42,220.01 L 138.56,240.50 L 173.68,220.16 L 173.64,139.75  z
" style="fill:#56a7ff;fill-opacity:1.00"/>
<path d="M 242.74,139.57 L 207.41,159.75 L 207.60,200.43 L 242.92,180.25 L 242.74,139.57  z
" style="fill:#5e9fff;fill-opacity:1.00"/>
<path d="M 312.20,139.75 L 276.65,159.83 L 276.69,240.25 L 312.24,220.17 L 312.20,139.75  z
" style="fill:#6697ff;fill-opacity:1.00"/>
<path d="M 311.52,139.57 L 311.51,180.43 L 346.91,160.00 L 311.52,139.57  z
" style="fill:#6995ff;fill-opacity:1.00"/>
<path d="M 380.80,139.57 L 380.62,180.25 L 415.94,200.43 L 416.12,159.75 L 380.80,139.57  z
" style="fill:#7490ff;fill-opacity:1.00"/>
<path d="M 450.08,139.57 L 449.90,180.25 L 485.22,200.43 L 485.40,159.75 L 450.08,139.57  z
" style="fill:#7f8cff;fill-opacity:1.00"/>
<path d="M 589.14,139.57 L 553.82,159.75 L 554.00,200.43 L 589.33,180.25 L 589.14,139.57  z
" style="fill:#8b88ff;fill-opacity:1.00"/>
<path d="M 658.43,139.57 L 623.04,160.00 L 658.43,180.43 L 658.43,139.57  z
" style="fill:#8e7eff;fill-opacity:1.00"/>
<path d="M 657.93,139.57 L 657.92,180.43 L 693.32,160.00 L 657.93,139.57  z
" style="fill:#8f7bff;fill-opacity:1.00"/>
<path d="M 727.71,139.57 L 692.38,159.75 L 692.57,200.43 L 727.89,180.25 L 727.71,139.57  z
" style="fill:#9274ff;fill-opacity:1.00"/>
<path d="M 797.17,139.75 L 761.67,159.75 L 761.67,200.25 L 797.17,220.25 L 797.17,139.75  z
" style="fill:#9868ff;fill-opacity:1.00"/>
<path d="M 138.81,159.57 L 103.49,179.75 L 103.67,220.43 L 139.00,200.25 L 138.81,159.57  z
" style="fill:#53a9ff;fill-opacity:1.00"/>
<path d="M 208.28,159.75 L 172.73,179.83 L 172.77,260.25 L 208.32,240.17 L 208.28,159.75  z
" style="fill:#5ba1ff;fill-opacity:1.00"/>
<path d="M 277.56,159.75 L 242.01,179.83 L 242.05,260.25 L 277.60,240.17 L 277.56,159.75  z
" style="fill:#6299ff;fill-opacity:1.00"/>
<path d="M 346.84,159.75 L 311.34,179.75 L 311.33,219.75 L 276.63,240.01 L 311.77,260.50 L 346.88,240.16 L 346.84,159.75  z
" style="fill:#6b93ff;fill-opacity:1.00"/>
<path d="M 345.98,159.75 L 345.98,240.25 L 381.48,220.25 L 381.48,179.75 L 345.98,159.75  z
" style="fill:#6e91ff;fill-opacity:1.00"/>
<path d="M 415.44,159.57 L 415.26,200.25 L 450.58,220.43 L 450.76,179.75 L 415.44,159.57  z
" style="fill:#788cff;fill-opacity:1.00"/>
<path d="M 484.72,159.57 L 484.72,200.43 L 520.11,180.00 L 484.72,159.57  z
" style="fill:#828aff;fill-opacity:1.00"/>
<path d="M 554.50,159.57 L 519.11,180.00 L 554.50,200.43 L 554.50,159.57  z
" style="fill:#8888ff;fill-opacity:1.00"/>
<path d="M 623.79,159.57 L 588.46,179.75 L 588.64,220.43 L 623.97,200.25 L 623.79,159.57  z
" style="fill:#8a82ff;fill-opacity:1.00"/>
<path d="M 623.29,159.57 L 623.28,200.43 L 658.68,180.00 L 623.29,159.57  z
" style="fill:#8b7eff;fill-opacity:1.00"/>
<path d="M 693.07,159.57 L 657.74,179.75 L 657.93,220.43 L 693.25,200.25 L 693.07,159.57  z
" style="fill:#8e77ff;fill-opacity:1.00"/>
<path d="M 762.53,159.75 L 727.03,179.75 L 727.03,220.25 L 762.53,240.25 L 762.53,159.75  z
" style="fill:#946cff;fill-opacity:1.00"/>
<path d="M 831.63,159.57 L 796.24,180.00 L 831.63,200.43 L 831.63,159.57  z
" style="fill:#9a62ff;fill-opacity:1.00"/>
<path d="M 242.92,179.75 L 207.37,199.83 L 207.41,280.25 L 242.96,260.17 L 242.92,179.75  z
" style="fill:#5f9cff;fill-opacity:1.00"/>
<path d="M 380.80,179.57 L 380.62,220.25 L 415.94,240.43 L 416.12,199.75 L 380.80,179.57  z
" style="fill:#728eff;fill-opacity:1.00"/>
<path d="M 450.08,179.57 L 449.90,220.25 L 485.22,240.43 L 485.40,199.75 L 450.08,179.57  z
" style="fill:#7c89ff;fill-opacity:1.00"/>
<path d="M 519.86,179.57 L 484.54,199.75 L 484.72,240.43 L 520.05,220.25 L 519.86,179.57  z
" style="fill:#8287ff;fill-opacity:1.00"/>
<path d="M 519.36,179.57 L 519.18,220.25 L 554.50,240.43 L 554.69,199.75 L 519.36,179.57  z
" style="fill:#8586ff;fill-opacity:1.00"/>
<path d="M 589.14,179.57 L 553.82,199.75 L 554.00,240.43 L 589.33,220.25 L 589.14,179.57  z
" style="fill:#8884ff;fill-opacity:1.00"/>
<path d="M 658.43,179.57 L 623.10,199.75 L 623.29,240.43 L 658.61,220.25 L 658.43,179.57  z
" style="fill:#8a7bff;fill-opacity:1.00"/>
<path d="M 727.89,179.75 L 692.38,199.75 L 692.38,240.25 L 727.89,260.25 L 727.89,179.75  z
" style="fill:#9070ff;fill-opacity:1.00"/>
<path d="M 796.49,179.57 L 796.31,220.25 L 831.63,240.43 L 831.81,199.75 L 796.49,179.57  z
" style="fill:#9864ff;fill-opacity:1.00"/>
<path d="M -0.43,199.75 L -0.43,280.25 L 35.07,260.25 L 35.07,219.75 L -0.43,199.75  z
" style="fill:#46b7ff;fill-opacity:1.00"/>
<path d="M 69.53,199.57 L 34.21,219.75 L 34.39,260.43 L 69.71,240.25 L 69.53,199.57  z
" style="fill:#4bb1ff;fill-opacity:1.00"/>
<path d="M 415.44,199.57 L 415.26,240.25 L 450.58,260.43 L 450.76,219.75 L 415.44,199.57  z
" style="fill:#768aff;fill-opacity:1.00"/>
<path d="M 623.79,199.57 L 588.46,219.75 L 588.64,260.43 L 623.97,240.25 L 623.79,199.57  z
" style="fill:#877eff;fill-opacity:1.00"/>
<path d="M 693.25,199.75 L 657.74,219.75 L 657.74,260.25 L 693.25,280.25 L 693.25,199.75  z
" style="fill:#8c74ff;fill-opacity:1.00"/>
<path d="M 761.67,199.75 L 761.63,280.17 L 797.17,300.25 L 797.21,219.83 L 761.67,199.75  z
" style="fill:#9469ff;fill-opacity:1.00"/>
<path d="M 104.41,219.88 L 68.80,239.88 L 68.80,360.12 L 104.41,380.12 L 104.41,219.88  z
" style="fill:#50acff;fill-opacity:1.00"/>
<path d="M 103.67,219.57 L 103.67,260.43 L 139.06,240.00 L 103.67,219.57  z
" style="fill:#53a9ff;fill-opacity:1.00"/>
<path d="M 173.69,219.88 L 138.08,239.88 L 138.08,360.12 L 173.69,380.12 L 173.69,219.88  z
" style="fill:#59a4ff;fill-opacity:1.00"/>
<path d="M 381.30,219.57 L 345.98,239.75 L 346.16,280.43 L 381.48,260.25 L 381.30,219.57  z
" style="fill:#708dff;fill-opacity:1.00"/>
<path d="M 380.80,219.57 L 380.80,260.43 L 416.19,240.00 L 380.80,219.57  z
" style="fill:#728bff;fill-opacity:1.00"/>
<path d="M 450.08,219.57 L 449.90,260.25 L 485.22,280.43 L 485.40,239.75 L 450.08,219.57  z
" style="fill:#7a86ff;fill-opacity:1.00"/>
<path d="M 519.61,219.50 L 484.47,240.00 L 519.61,260.50 L 554.75,240.00 L 519.61,219.50  z
" style="fill:#8084ff;fill-opacity:1.00"/>
<path d="M 589.14,219.57 L 553.82,239.75 L 554.00,280.43 L 589.33,260.25 L 589.14,219.57  z
" style="fill:#8480ff;fill-opacity:1.00"/>
<path d="M 658.43,219.57 L 623.10,239.75 L 623.29,280.43 L 658.61,260.25 L 658.43,219.57  z
" style="fill:#8878ff;fill-opacity:1.00"/>
<path d="M 727.02,219.75 L 726.99,300.17 L 762.53,320.25 L 762.57,239.83 L 727.02,219.75  z
" style="fill:#906dff;fill-opacity:1.00"/>
<path d="M 796.25,219.91 L 796.25,419.92 L 761.60,440.01 L 796.74,460.50 L 831.87,440.08 L 831.87,239.92 L 796.25,219.91  z
" style="fill:#9666ff;fill-opacity:1.00"/>
<path d="M 69.71,239.75 L 34.21,259.75 L 34.21,300.25 L 69.71,320.25 L 69.71,239.75  z
" style="fill:#4caefe;fill-opacity:1.00"/>
<path d="M 139.04,239.84 L 103.45,259.83 L 103.45,340.17 L 139.03,360.17 L 139.04,239.84  z
" style="fill:#55a7ff;fill-opacity:1.00"/>
<path d="M 208.33,239.88 L 172.72,259.88 L 172.72,380.12 L 208.33,400.12 L 208.33,239.88  z
" style="fill:#5d9fff;fill-opacity:1.00"/>
<path d="M 277.38,239.57 L 242.05,259.75 L 242.24,300.43 L 277.56,280.25 L 277.38,239.57  z
" style="fill:#6698ff;fill-opacity:1.00"/>
<path d="M 276.88,239.57 L 276.87,280.43 L 312.27,260.00 L 276.88,239.57  z
" style="fill:#6894ff;fill-opacity:1.00"/>
<path d="M 346.89,239.88 L 311.28,259.90 L 311.28,420.10 L 345.98,440.25 L 346.03,480.33 L 381.48,480.25 L 381.51,419.80 L 346.90,399.91 L 346.89,239.88  z
" style="fill:#6d8fff;fill-opacity:1.00"/>
<path d="M 416.18,239.88 L 380.56,259.88 L 380.56,380.12 L 416.17,400.12 L 416.18,239.88  z
" style="fill:#7489ff;fill-opacity:1.00"/>
<path d="M 415.44,239.57 L 415.44,280.43 L 450.83,260.00 L 415.44,239.57  z
" style="fill:#7687ff;fill-opacity:1.00"/>
<path d="M 484.72,239.57 L 484.72,280.43 L 520.11,260.00 L 484.72,239.57  z
" style="fill:#7d83ff;fill-opacity:1.00"/>
<path d="M 554.50,239.57 L 519.11,260.00 L 554.50,280.43 L 554.50,239.57  z
" style="fill:#8282ff;fill-opacity:1.00"/>
<path d="M 623.79,239.57 L 588.46,259.75 L 588.64,300.43 L 623.97,280.25 L 623.79,239.57  z
" style="fill:#857bff;fill-opacity:1.00"/>
<path d="M 692.33,239.91 L 692.33,440.10 L 727.89,420.25 L 727.89,380.25 L 762.60,359.99 L 727.93,339.83 L 727.93,259.83 L 692.33,239.91  z
" style="fill:#8c71ff;fill-opacity:1.00"/>
<path d="M 35.07,259.75 L -0.43,279.75 L -0.43,320.25 L 35.07,340.25 L 35.07,259.75  z
" style="fill:#48b2fe;fill-opacity:1.00"/>
<path d="M 242.96,259.84 L 207.37,279.83 L 207.37,360.17 L 242.96,380.17 L 242.96,259.84  z
" style="fill:#629afe;fill-opacity:1.00"/>
<path d="M 312.20,259.75 L 276.69,279.75 L 276.69,320.25 L 312.20,340.25 L 312.20,259.75  z
" style="fill:#6a91ff;fill-opacity:1.00"/>
<path d="M 381.52,259.84 L 345.94,279.83 L 345.94,360.17 L 381.52,380.17 L 381.52,259.84  z
" style="fill:#728bff;fill-opacity:1.00"/>
<path d="M 450.33,259.50 L 415.22,279.84 L 415.22,360.17 L 449.90,380.25 L 450.09,420.44 L 485.40,400.25 L 485.40,359.75 L 450.76,339.75 L 450.76,300.25 L 485.47,279.99 L 450.33,259.50  z
" style="fill:#7884ff;fill-opacity:1.00"/>
<path d="M 519.61,259.50 L 484.54,279.75 L 484.97,320.50 L 554.69,280.25 L 519.61,259.50  z
" style="fill:#7e80ff;fill-opacity:1.00"/>
<path d="M 589.14,259.57 L 553.78,279.84 L 553.82,360.25 L 623.79,400.43 L 624.01,319.84 L 589.33,299.75 L 589.14,259.57  z
" style="fill:#827cff;fill-opacity:1.00"/>
<path d="M 658.43,259.57 L 623.10,279.75 L 623.29,320.43 L 658.61,300.25 L 658.43,259.57  z
" style="fill:#8675ff;fill-opacity:1.00"/>
<path d="M 657.93,259.57 L 657.74,300.25 L 693.07,320.43 L 693.25,279.75 L 657.93,259.57  z
" style="fill:#8873ff;fill-opacity:1.00"/>
<path d="M 277.38,279.57 L 241.99,300.00 L 277.38,320.43 L 277.38,279.57  z
" style="fill:#6695ff;fill-opacity:1.00"/>
<path d="M 485.40,279.75 L 449.90,299.75 L 449.90,340.25 L 485.40,360.25 L 485.40,279.75  z
" style="fill:#7a82ff;fill-opacity:1.00"/>
<path d="M 554.69,279.75 L 519.14,299.83 L 519.18,380.25 L 554.72,360.17 L 554.69,279.75  z
" style="fill:#7f7dff;fill-opacity:1.00"/>
<path d="M 623.79,279.57 L 588.39,300.00 L 623.79,320.43 L 623.79,279.57  z
" style="fill:#8378ff;fill-opacity:1.00"/>
<path d="M 761.63,279.84 L 761.63,400.17 L 797.21,380.17 L 797.21,299.83 L 761.63,279.84  z
" style="fill:#926bff;fill-opacity:1.00"/>
<path d="M 34.16,299.88 L 34.15,460.10 L 69.77,480.12 L 69.77,319.90 L 34.16,299.88  z
" style="fill:#4bb1ff;fill-opacity:1.00"/>
<path d="M 242.01,299.84 L 242.00,420.12 L 277.60,440.17 L 277.61,319.88 L 242.01,299.84  z
" style="fill:#6598ff;fill-opacity:1.00"/>
<path d="M 520.05,299.75 L 484.54,319.75 L 484.54,360.25 L 520.04,380.25 L 520.05,299.75  z
" style="fill:#7c7eff;fill-opacity:1.00"/>
<path d="M 658.18,299.50 L 623.06,319.84 L 623.06,400.17 L 658.61,420.25 L 658.65,340.16 L 693.32,319.99 L 658.18,299.50  z
" style="fill:#8678ff;fill-opacity:1.00"/>
<path d="M 727.21,299.57 L 727.02,340.25 L 762.35,360.43 L 762.53,319.75 L 727.21,299.57  z
" style="fill:#8e6fff;fill-opacity:1.00"/>
<path d="M -0.47,319.84 L -0.49,440.12 L 35.11,460.17 L 35.13,339.88 L -0.47,319.84  z
" style="fill:#47b5fe;fill-opacity:1.00"/>
<path d="M 276.69,319.75 L 276.65,400.17 L 312.20,420.25 L 312.24,339.83 L 276.69,319.75  z
" style="fill:#6994ff;fill-opacity:1.00"/>
<path d="M 693.29,319.84 L 657.70,339.83 L 657.70,420.17 L 693.29,440.17 L 693.29,319.84  z
" style="fill:#8874ff;fill-opacity:1.00"/>
<path d="M 103.49,339.75 L 103.49,420.25 L 139.00,400.25 L 138.99,359.75 L 103.49,339.75  z
" style="fill:#54aafe;fill-opacity:1.00"/>
<path d="M 68.81,359.84 L 68.80,480.14 L 104.39,480.17 L 104.40,379.86 L 68.81,359.84  z
" style="fill:#4faffe;fill-opacity:1.00"/>
<path d="M 138.31,359.57 L 138.31,400.43 L 173.70,380.00 L 138.31,359.57  z
" style="fill:#57a6fe;fill-opacity:1.00"/>
<path d="M 207.41,359.75 L 207.37,440.17 L 242.92,460.25 L 242.96,379.83 L 207.41,359.75  z
" style="fill:#619dff;fill-opacity:1.00"/>
<path d="M 346.16,359.57 L 345.98,400.25 L 381.30,420.43 L 381.48,379.75 L 346.16,359.57  z
" style="fill:#708dff;fill-opacity:1.00"/>
<path d="M 415.26,359.75 L 415.26,440.25 L 450.76,420.25 L 450.76,379.75 L 415.26,359.75  z
" style="fill:#7687ff;fill-opacity:1.00"/>
<path d="M 484.72,359.57 L 484.72,400.43 L 520.11,380.00 L 484.72,359.57  z
" style="fill:#7a81ff;fill-opacity:1.00"/>
<path d="M 554.25,359.50 L 519.18,379.75 L 519.61,420.50 L 589.33,380.25 L 554.25,359.50  z
" style="fill:#7c7cff;fill-opacity:1.00"/>
<path d="M 762.53,359.75 L 726.99,379.83 L 727.03,460.25 L 762.57,440.17 L 762.53,359.75  z
" style="fill:#906eff;fill-opacity:1.00"/>
<path d="M 173.45,379.57 L 138.13,399.75 L 138.13,440.25 L 173.21,460.50 L 208.35,440.00 L 173.64,419.75 L 173.45,379.57  z
" style="fill:#58a3fe;fill-opacity:1.00"/>
<path d="M 172.95,379.57 L 172.77,420.25 L 208.10,440.43 L 208.28,399.75 L 172.95,379.57  z
" style="fill:#5ba1ff;fill-opacity:1.00"/>
<path d="M 380.62,379.75 L 380.62,460.25 L 416.12,440.25 L 416.12,399.75 L 380.62,379.75  z
" style="fill:#728bff;fill-opacity:1.00"/>
<path d="M 519.86,379.57 L 484.54,399.75 L 484.72,440.43 L 520.05,420.25 L 519.86,379.57  z
" style="fill:#7a7eff;fill-opacity:1.00"/>
<path d="M 589.14,379.57 L 553.75,400.00 L 589.14,420.43 L 589.14,379.57  z
" style="fill:#7d79ff;fill-opacity:1.00"/>
<path d="M 588.64,379.57 L 588.46,420.25 L 623.79,440.43 L 623.97,399.75 L 588.64,379.57  z
" style="fill:#8078ff;fill-opacity:1.00"/>
<path d="M 796.99,379.57 L 761.67,399.75 L 761.85,440.43 L 797.17,420.25 L 796.99,379.57  z
" style="fill:#9469ff;fill-opacity:1.00"/>
<path d="M 138.81,399.57 L 103.42,420.00 L 138.81,440.43 L 138.81,399.57  z
" style="fill:#54a7ff;fill-opacity:1.00"/>
<path d="M 276.88,399.57 L 276.69,440.25 L 312.02,460.43 L 312.20,419.75 L 276.88,399.57  z
" style="fill:#6796ff;fill-opacity:1.00"/>
<path d="M 485.22,399.57 L 449.90,419.75 L 450.08,460.43 L 485.40,440.25 L 485.22,399.57  z
" style="fill:#7781ff;fill-opacity:1.00"/>
<path d="M 554.25,399.50 L 519.18,419.75 L 519.61,460.50 L 589.33,420.25 L 554.25,399.50  z
" style="fill:#7979ff;fill-opacity:1.00"/>
<path d="M 623.29,399.57 L 623.10,440.25 L 658.43,460.43 L 658.61,419.75 L 623.29,399.57  z
" style="fill:#8276ff;fill-opacity:1.00"/>
<path d="M 103.67,419.57 L 103.49,460.25 L 138.81,480.43 L 139.00,439.75 L 103.67,419.57  z
" style="fill:#52a9ff;fill-opacity:1.00"/>
<path d="M 242.24,419.57 L 242.05,460.25 L 277.38,480.43 L 277.56,439.75 L 242.24,419.57  z
" style="fill:#629aff;fill-opacity:1.00"/>
<path d="M 311.39,419.67 L 311.34,480.25 L 346.79,480.33 L 346.84,439.75 L 311.39,419.67  z
" style="fill:#6a93ff;fill-opacity:1.00"/>
<path d="M 450.58,419.57 L 415.26,439.75 L 415.44,480.43 L 450.76,460.25 L 450.58,419.57  z
" style="fill:#7484ff;fill-opacity:1.00"/>
<path d="M 519.86,419.57 L 484.54,439.75 L 484.72,480.43 L 520.05,460.25 L 519.86,419.57  z
" style="fill:#767bff;fill-opacity:1.00"/>
<path d="M 589.14,419.57 L 553.82,439.75 L 554.00,480.43 L 589.33,460.25 L 589.14,419.57  z
" style="fill:#7a76ff;fill-opacity:1.00"/>
<path d="M 588.64,419.57 L 588.46,460.25 L 623.79,480.43 L 623.97,439.75 L 588.64,419.57  z
" style="fill:#7d76ff;fill-opacity:1.00"/>
<path d="M 657.93,419.57 L 657.74,460.25 L 693.07,480.43 L 693.25,439.75 L 657.93,419.57  z
" style="fill:#8672ff;fill-opacity:1.00"/>
<path d="M 727.71,419.57 L 692.32,440.00 L 727.71,460.43 L 727.71,419.57  z
" style="fill:#8c6eff;fill-opacity:1.00"/>
<path d="M -0.25,439.57 L -0.38,480.33 L 34.89,480.43 L 35.02,459.67 L -0.25,439.57  z
" style="fill:#45b7ff;fill-opacity:1.00"/>
<path d="M 138.31,439.57 L 138.18,480.33 L 173.46,480.43 L 173.58,459.67 L 138.31,439.57  z
" style="fill:#55a7ff;fill-opacity:1.00"/>
<path d="M 208.10,439.57 L 172.70,460.00 L 208.10,480.43 L 208.10,439.57  z
" style="fill:#5ba2ff;fill-opacity:1.00"/>
<path d="M 207.60,439.57 L 207.47,480.33 L 242.74,480.43 L 242.87,459.67 L 207.60,439.57  z
" style="fill:#5d9fff;fill-opacity:1.00"/>
<path d="M 276.88,439.57 L 276.75,480.33 L 312.02,480.43 L 312.15,459.67 L 276.88,439.57  z
" style="fill:#6598ff;fill-opacity:1.00"/>
<path d="M 415.94,439.57 L 380.67,459.67 L 380.80,480.43 L 416.07,480.33 L 415.94,439.57  z
" style="fill:#7089ff;fill-opacity:1.00"/>
<path d="M 485.22,439.57 L 449.95,459.67 L 450.08,480.43 L 485.35,480.33 L 485.22,439.57  z
" style="fill:#747eff;fill-opacity:1.00"/>
<path d="M 554.50,439.57 L 519.23,459.67 L 519.36,480.43 L 554.63,480.33 L 554.50,439.57  z
" style="fill:#7676ff;fill-opacity:1.00"/>
<path d="M 623.29,439.57 L 623.16,480.33 L 658.43,480.43 L 658.56,459.67 L 623.29,439.57  z
" style="fill:#7f72ff;fill-opacity:1.00"/>
<path d="M 692.57,439.57 L 692.44,480.33 L 727.71,480.43 L 727.84,459.67 L 692.57,439.57  z
" style="fill:#886eff;fill-opacity:1.00"/>
<path d="M 762.35,439.57 L 726.96,460.00 L 762.35,480.43 L 762.35,439.57  z
" style="fill:#906aff;fill-opacity:1.00"/>
<path d="M 761.85,439.57 L 761.72,480.33 L 796.99,480.43 L 797.12,459.67 L 761.85,439.57  z
" style="fill:#9368ff;fill-opacity:1.00"/>
<path d="M 831.63,439.57 L 796.36,459.67 L 796.49,480.43 L 831.76,480.33 L 831.63,439.57  z
" style="fill:#9963ff;fill-opacity:1.00"/>
<path d="M 34.64,459.50 L 34.39,480.43 L 69.78,480.01 L 34.64,459.50  z
" style="fill:#48b3ff;fill-opacity:1.00"/>
<path d="M 103.92,459.50 L 103.67,480.43 L 139.06,480.01 L 103.92,459.50  z
" style="fill:#51adff;fill-opacity:1.00"/>
<path d="M 173.20,459.50 L 172.95,480.43 L 208.35,480.01 L 173.20,459.50  z
" style="fill:#58a4ff;fill-opacity:1.00"/>
<path d="M 242.49,459.50 L 242.23,480.43 L 277.63,480.01 L 242.49,459.50  z
" style="fill:#609dff;fill-opacity:1.00"/>
<path d="M 450.33,459.50 L 415.19,480.00 L 450.58,480.43 L 450.33,459.50  z
" style="fill:#7082ff;fill-opacity:1.00"/>
<path d="M 519.61,459.50 L 484.47,480.00 L 519.86,480.43 L 519.61,459.50  z
" style="fill:#7478ff;fill-opacity:1.00"/>
<path d="M 588.89,459.50 L 554.00,480.43 L 623.79,480.43 L 588.89,459.50  z
" style="fill:#7773ff;fill-opacity:1.00"/>
<path d="M 658.18,459.50 L 657.92,480.43 L 693.32,480.01 L 658.18,459.50  z
" style="fill:#826fff;fill-opacity:1.00"/>
<path d="M 727.46,459.50 L 727.20,480.43 L 762.60,480.01 L 727.46,459.50  z
" style="fill:#8c6aff;fill-opacity:1.00"/>
</g>
<g id="Layer 16" transform="matrix(1.000, 0.000, 0.000, 1.000, 0.000, 0.000)">
<path d="M 346.41,159.50 L 311.27,180.00 L 346.41,200.50 L 381.55,180.00 L 346.41,159.50  z
" style="fill:#46d5ff;fill-opacity:1.00"/>
<path d="M 484.97,159.50 L 449.83,180.00 L 484.97,200.50 L 520.11,180.00 L 484.97,159.50  z
" style="fill:#f1d5ff;fill-opacity:1.00"/>
<path d="M 311.52,179.57 L 311.33,220.25 L 346.66,240.43 L 346.84,199.75 L 311.52,179.57  z
" style="fill:#339ad9;fill-opacity:1.00"/>
<path d="M 381.30,179.57 L 345.91,200.00 L 381.30,220.43 L 381.30,179.57  z
" style="fill:#79c2ff;fill-opacity:1.00"/>
<path d="M 380.80,179.57 L 380.80,220.43 L 416.19,200.00 L 380.80,179.57  z
" style="fill:#92c2ff;fill-opacity:1.00"/>
<path d="M 450.58,179.57 L 415.19,200.00 L 450.58,220.43 L 450.58,179.57  z
" style="fill:#bfc2fe;fill-opacity:1.00"/>
<path d="M 450.08,179.57 L 450.08,220.43 L 485.47,200.00 L 450.08,179.57  z
" style="fill:#d5c1fe;fill-opacity:1.00"/>
<path d="M 519.86,179.57 L 484.54,199.75 L 484.72,240.43 L 520.05,220.25 L 519.86,179.57  z
" style="fill:#e3a9f1;fill-opacity:1.00"/>
<path d="M 346.16,199.57 L 346.16,240.43 L 381.55,220.00 L 346.16,199.57  z
" style="fill:#4c99d9;fill-opacity:1.00"/>
<path d="M 415.94,199.57 L 380.55,220.00 L 415.94,240.43 L 415.94,199.57  z
" style="fill:#9eb0ff;fill-opacity:1.00"/>
<path d="M 415.44,199.57 L 415.44,240.43 L 450.83,220.00 L 415.44,199.57  z
" style="fill:#b3aeff;fill-opacity:1.00"/>
<path d="M 485.22,199.57 L 449.83,220.00 L 485.22,240.43 L 485.22,199.57  z
" style="fill:#d4aaf1;fill-opacity:1.00"/>
<path d="M 381.30,219.57 L 345.91,240.00 L 381.30,260.43 L 381.30,219.57  z
" style="fill:#5a77ce;fill-opacity:1.00"/>
<path d="M 380.80,219.57 L 380.80,260.43 L 416.19,240.00 L 380.80,219.57  z
" style="fill:#6e78cd;fill-opacity:1.00"/>
<path d="M 450.58,219.57 L 415.19,240.00 L 450.58,260.43 L 450.58,219.57  z
" style="fill:#ad88ed;fill-opacity:1.00"/>
<path d="M 450.08,219.57 L 450.08,260.43 L 485.47,240.00 L 450.08,219.57  z
" style="fill:#c28aed;fill-opacity:1.00"/>
<path d="M 346.66,239.57 L 311.27,260.00 L 346.66,280.43 L 346.66,239.57  z
" style="fill:#2e65ce;fill-opacity:1.00"/>
<path d="M 346.16,239.57 L 346.16,280.43 L 381.55,260.00 L 346.16,239.57  z
" style="fill:#4f66ce;fill-opacity:1.00"/>
<path d="M 415.94,239.57 L 380.55,260.00 L 415.94,280.43 L 415.94,239.57  z
" style="fill:#683ece;fill-opacity:1.00"/>
<path d="M 415.44,239.57 L 415.44,280.43 L 450.83,260.00 L 415.44,239.57  z
" style="fill:#b249ed;fill-opacity:1.00"/>
<path d="M 485.22,239.57 L 449.83,260.00 L 485.22,280.43 L 485.22,239.57  z
" style="fill:#cd74ed;fill-opacity:1.00"/>
<path d="M 484.72,239.57 L 484.72,280.43 L 520.11,260.00 L 484.72,239.57  z
" style="fill:#df77ed;fill-opacity:1.00"/>
<path d="M 311.52,259.57 L 311.33,300.25 L 346.66,320.43 L 346.84,279.75 L 311.52,259.57  z
" style="fill:#2e36ce;fill-opacity:1.00"/>
<path d="M 381.30,259.57 L 345.91,280.00 L 381.30,300.43 L 381.30,259.57  z
" style="fill:#5a36ce;fill-opacity:1.00"/>
<path d="M 380.80,259.57 L 380.80,300.43 L 416.19,280.00 L 380.80,259.57  z
" style="fill:#6337ce;fill-opacity:1.00"/>
<path d="M 450.58,259.57 L 415.19,280.00 L 450.58,300.43 L 450.58,259.57  z
" style="fill:#b83eed;fill-opacity:1.00"/>
<path d="M 450.08,259.57 L 450.08,300.43 L 485.47,280.00 L 450.08,259.57  z
" style="fill:#c240ed;fill-opacity:1.00"/>
<path d="M 519.86,259.57 L 484.54,279.75 L 484.72,320.43 L 520.05,300.25 L 519.86,259.57  z
" style="fill:#df3eed;fill-opacity:1.00"/>
<path d="M 346.16,279.57 L 346.16,320.43 L 381.55,300.00 L 346.16,279.57  z
" style="fill:#5a1ece;fill-opacity:1.00"/>
<path d="M 485.22,279.57 L 449.83,300.00 L 485.22,320.43 L 485.22,279.57  z
" style="fill:#c224ed;fill-opacity:1.00"/>
</g>
</g></svg>
