<svg id="Hexels SVG Export" xmlns="http://www.w3.org/2000/svg" version="1.1" xmlns:xlink="http://www.w3.org/1999/xlink" viewBox="0 -0 1109 640" xml:space="preserve">
<g id="Root" transform="matrix(1.000, 0.000, 0.000, 1.000, 0.000, 0.000)">
<g id="Layer 16" transform="matrix(1.000, 0.000, 0.000, 1.000, 0.000, 0.000)">
<path d="M 484.97,239.50 L 449.83,260.00 L 484.97,280.50 L 520.11,260.00 L 484.97,239.50  z
" style="fill:#46d5ff;fill-opacity:1.00"/>
<path d="M 623.54,239.50 L 588.39,260.00 L 623.54,280.50 L 658.68,260.00 L 623.54,239.50  z
" style="fill:#f1d5ff;fill-opacity:1.00"/>
<path d="M 450.08,259.57 L 449.90,300.25 L 485.22,320.43 L 485.40,279.75 L 450.08,259.57  z
" style="fill:#339ad9;fill-opacity:1.00"/>
<path d="M 519.86,259.57 L 484.47,280.00 L 519.86,300.43 L 519.86,259.57  z
" style="fill:#79c2ff;fill-opacity:1.00"/>
<path d="M 519.36,259.57 L 519.36,300.43 L 554.75,280.00 L 519.36,259.57  z
" style="fill:#92c2ff;fill-opacity:1.00"/>
<path d="M 589.14,259.57 L 553.75,280.00 L 589.14,300.43 L 589.14,259.57  z
" style="fill:#bfc2fe;fill-opacity:1.00"/>
<path d="M 588.64,259.57 L 588.64,300.43 L 624.04,280.00 L 588.64,259.57  z
" style="fill:#d5c1fe;fill-opacity:1.00"/>
<path d="M 658.43,259.57 L 623.10,279.75 L 623.29,320.43 L 658.61,300.25 L 658.43,259.57  z
" style="fill:#e3a9f1;fill-opacity:1.00"/>
<path d="M 484.72,279.57 L 484.72,320.43 L 520.11,300.00 L 484.72,279.57  z
" style="fill:#4c99d9;fill-opacity:1.00"/>
<path d="M 554.50,279.57 L 519.11,300.00 L 554.50,320.43 L 554.50,279.57  z
" style="fill:#9eb0ff;fill-opacity:1.00"/>
<path d="M 554.00,279.57 L 554.00,320.43 L 589.39,300.00 L 554.00,279.57  z
" style="fill:#b3aeff;fill-opacity:1.00"/>
<path d="M 623.79,279.57 L 588.39,300.00 L 623.79,320.43 L 623.79,279.57  z
" style="fill:#d4aaf1;fill-opacity:1.00"/>
<path d="M 519.86,299.57 L 484.47,320.00 L 519.86,340.43 L 519.86,299.57  z
" style="fill:#5a77ce;fill-opacity:1.00"/>
<path d="M 519.36,299.57 L 519.36,340.43 L 554.75,320.00 L 519.36,299.57  z
" style="fill:#6e78cd;fill-opacity:1.00"/>
<path d="M 589.14,299.57 L 553.75,320.00 L 589.14,340.43 L 589.14,299.57  z
" style="fill:#ad88ed;fill-opacity:1.00"/>
<path d="M 588.64,299.57 L 588.64,340.43 L 624.04,320.00 L 588.64,299.57  z
" style="fill:#c28aed;fill-opacity:1.00"/>
<path d="M 485.22,319.57 L 449.83,340.00 L 485.22,360.43 L 485.22,319.57  z
" style="fill:#2e65ce;fill-opacity:1.00"/>
<path d="M 484.72,319.57 L 484.72,360.43 L 520.11,340.00 L 484.72,319.57  z
" style="fill:#4f66ce;fill-opacity:1.00"/>
<path d="M 554.50,319.57 L 519.11,340.00 L 554.50,360.43 L 554.50,319.57  z
" style="fill:#683ece;fill-opacity:1.00"/>
<path d="M 554.00,319.57 L 554.00,360.43 L 589.39,340.00 L 554.00,319.57  z
" style="fill:#b249ed;fill-opacity:1.00"/>
<path d="M 623.79,319.57 L 588.39,340.00 L 623.79,360.43 L 623.79,319.57  z
" style="fill:#cd74ed;fill-opacity:1.00"/>
<path d="M 623.29,319.57 L 623.28,360.43 L 658.68,340.00 L 623.29,319.57  z
" style="fill:#df77ed;fill-opacity:1.00"/>
<path d="M 450.08,339.57 L 449.90,380.25 L 485.22,400.43 L 485.40,359.75 L 450.08,339.57  z
" style="fill:#2e36ce;fill-opacity:1.00"/>
<path d="M 519.86,339.57 L 484.47,360.00 L 519.86,380.43 L 519.86,339.57  z
" style="fill:#5a36ce;fill-opacity:1.00"/>
<path d="M 519.36,339.57 L 519.36,380.43 L 554.75,360.00 L 519.36,339.57  z
" style="fill:#6337ce;fill-opacity:1.00"/>
<path d="M 589.14,339.57 L 553.75,360.00 L 589.14,380.43 L 589.14,339.57  z
" style="fill:#b83eed;fill-opacity:1.00"/>
<path d="M 588.64,339.57 L 588.64,380.43 L 624.04,360.00 L 588.64,339.57  z
" style="fill:#c240ed;fill-opacity:1.00"/>
<path d="M 658.43,339.57 L 623.10,359.75 L 623.29,400.43 L 658.61,380.25 L 658.43,339.57  z
" style="fill:#df3eed;fill-opacity:1.00"/>
<path d="M 484.72,359.57 L 484.72,400.43 L 520.11,380.00 L 484.72,359.57  z
" style="fill:#5a1ece;fill-opacity:1.00"/>
<path d="M 623.79,359.57 L 588.39,380.00 L 623.79,400.43 L 623.79,359.57  z
" style="fill:#c224ed;fill-opacity:1.00"/>
</g>
</g></svg>
